<mxfile host="app.diagrams.net" agent="Mozilla/5.0 (Windows NT 10.0; Win64; x64) AppleWebKit/537.36 (KHTML, like Gecko) Chrome/129.0.0.0 Safari/537.36" version="24.7.17">
  <diagram name="Page-1" id="bOFyLktQ3b1tLQeO2AxJ">
    <mxGraphModel dx="934" dy="539" grid="1" gridSize="10" guides="1" tooltips="1" connect="1" arrows="1" fold="1" page="1" pageScale="1" pageWidth="850" pageHeight="1100" math="0" shadow="0">
      <root>
        <mxCell id="0" />
        <mxCell id="1" parent="0" />
        <mxCell id="eFiqkfWfOuMBbfG-rL7w-1" value="Pool" style="swimlane;childLayout=stackLayout;resizeParent=1;resizeParentMax=0;startSize=20;html=1;" vertex="1" parent="1">
          <mxGeometry x="230.00000000000045" y="50" width="493.99999999999955" height="590" as="geometry" />
        </mxCell>
        <mxCell id="eFiqkfWfOuMBbfG-rL7w-2" value="Client" style="swimlane;startSize=20;html=1;" vertex="1" parent="eFiqkfWfOuMBbfG-rL7w-1">
          <mxGeometry y="20" width="200" height="570" as="geometry" />
        </mxCell>
        <mxCell id="eFiqkfWfOuMBbfG-rL7w-3" value="" style="edgeStyle=orthogonalEdgeStyle;rounded=0;orthogonalLoop=1;jettySize=auto;html=1;" edge="1" parent="eFiqkfWfOuMBbfG-rL7w-2" source="eFiqkfWfOuMBbfG-rL7w-4" target="eFiqkfWfOuMBbfG-rL7w-6">
          <mxGeometry relative="1" as="geometry" />
        </mxCell>
        <mxCell id="eFiqkfWfOuMBbfG-rL7w-4" value="" style="ellipse;whiteSpace=wrap;html=1;aspect=fixed;fillColor=#000000;" vertex="1" parent="eFiqkfWfOuMBbfG-rL7w-2">
          <mxGeometry x="49.999999999999545" y="30" width="10" height="10" as="geometry" />
        </mxCell>
        <mxCell id="eFiqkfWfOuMBbfG-rL7w-5" value="" style="edgeStyle=orthogonalEdgeStyle;rounded=0;orthogonalLoop=1;jettySize=auto;html=1;" edge="1" parent="eFiqkfWfOuMBbfG-rL7w-2" source="eFiqkfWfOuMBbfG-rL7w-6" target="eFiqkfWfOuMBbfG-rL7w-7">
          <mxGeometry relative="1" as="geometry" />
        </mxCell>
        <mxCell id="eFiqkfWfOuMBbfG-rL7w-6" value="Log In" style="rounded=1;whiteSpace=wrap;html=1;" vertex="1" parent="eFiqkfWfOuMBbfG-rL7w-2">
          <mxGeometry x="19.999999999999545" y="90" width="70" height="40" as="geometry" />
        </mxCell>
        <mxCell id="eFiqkfWfOuMBbfG-rL7w-7" value="Register for Triage" style="rounded=1;whiteSpace=wrap;html=1;" vertex="1" parent="eFiqkfWfOuMBbfG-rL7w-2">
          <mxGeometry x="12.5" y="190" width="85" height="40" as="geometry" />
        </mxCell>
        <mxCell id="eFiqkfWfOuMBbfG-rL7w-8" value="Patient Receives Response Notification" style="rounded=1;whiteSpace=wrap;html=1;" vertex="1" parent="eFiqkfWfOuMBbfG-rL7w-2">
          <mxGeometry x="29.999999999999545" y="497.5" width="120" height="60" as="geometry" />
        </mxCell>
        <mxCell id="eFiqkfWfOuMBbfG-rL7w-9" value="Mister Ed" style="swimlane;startSize=20;html=1;" vertex="1" parent="eFiqkfWfOuMBbfG-rL7w-1">
          <mxGeometry x="200" y="20" width="164" height="570" as="geometry" />
        </mxCell>
        <mxCell id="eFiqkfWfOuMBbfG-rL7w-10" value="" style="edgeStyle=orthogonalEdgeStyle;rounded=0;orthogonalLoop=1;jettySize=auto;html=1;" edge="1" parent="eFiqkfWfOuMBbfG-rL7w-9" source="eFiqkfWfOuMBbfG-rL7w-11">
          <mxGeometry relative="1" as="geometry">
            <mxPoint x="59.999999999999545" y="280" as="targetPoint" />
          </mxGeometry>
        </mxCell>
        <mxCell id="eFiqkfWfOuMBbfG-rL7w-11" value="Run Triage" style="rounded=1;whiteSpace=wrap;html=1;" vertex="1" parent="eFiqkfWfOuMBbfG-rL7w-9">
          <mxGeometry x="19.999999999999545" y="190" width="80" height="40" as="geometry" />
        </mxCell>
        <mxCell id="eFiqkfWfOuMBbfG-rL7w-12" value="Add to waitlist" style="rounded=1;whiteSpace=wrap;html=1;" vertex="1" parent="eFiqkfWfOuMBbfG-rL7w-9">
          <mxGeometry x="19.999999999999545" y="380" width="80" height="30" as="geometry" />
        </mxCell>
        <mxCell id="eFiqkfWfOuMBbfG-rL7w-13" value="" style="edgeStyle=orthogonalEdgeStyle;rounded=0;orthogonalLoop=1;jettySize=auto;html=1;" edge="1" parent="eFiqkfWfOuMBbfG-rL7w-9" source="eFiqkfWfOuMBbfG-rL7w-14" target="eFiqkfWfOuMBbfG-rL7w-12">
          <mxGeometry relative="1" as="geometry" />
        </mxCell>
        <mxCell id="eFiqkfWfOuMBbfG-rL7w-14" value="" style="rhombus;whiteSpace=wrap;html=1;" vertex="1" parent="eFiqkfWfOuMBbfG-rL7w-9">
          <mxGeometry x="44.999999999999545" y="280" width="30" height="20" as="geometry" />
        </mxCell>
        <mxCell id="eFiqkfWfOuMBbfG-rL7w-15" value="[ER]" style="text;html=1;align=center;verticalAlign=middle;whiteSpace=wrap;rounded=0;" vertex="1" parent="eFiqkfWfOuMBbfG-rL7w-9">
          <mxGeometry x="51.999999999999545" y="260" width="60" height="30" as="geometry" />
        </mxCell>
        <mxCell id="eFiqkfWfOuMBbfG-rL7w-16" value="[Not ER]" style="text;html=1;align=center;verticalAlign=middle;whiteSpace=wrap;rounded=0;" vertex="1" parent="eFiqkfWfOuMBbfG-rL7w-9">
          <mxGeometry x="3.9999999999995453" y="320" width="60" height="30" as="geometry" />
        </mxCell>
        <mxCell id="eFiqkfWfOuMBbfG-rL7w-17" value="Send Notification" style="rounded=1;whiteSpace=wrap;html=1;" vertex="1" parent="eFiqkfWfOuMBbfG-rL7w-9">
          <mxGeometry x="20" y="495" width="80" height="65" as="geometry" />
        </mxCell>
        <mxCell id="eFiqkfWfOuMBbfG-rL7w-18" value="" style="endArrow=none;html=1;rounded=0;exitX=0.75;exitY=1;exitDx=0;exitDy=0;" edge="1" parent="eFiqkfWfOuMBbfG-rL7w-9">
          <mxGeometry width="50" height="50" relative="1" as="geometry">
            <mxPoint x="111.99999999999955" y="270" as="sourcePoint" />
            <mxPoint x="111.99999999999955" y="320" as="targetPoint" />
          </mxGeometry>
        </mxCell>
        <mxCell id="eFiqkfWfOuMBbfG-rL7w-19" value="" style="endArrow=classic;html=1;rounded=0;exitX=1;exitY=0.5;exitDx=0;exitDy=0;entryX=1;entryY=1;entryDx=0;entryDy=0;" edge="1" parent="eFiqkfWfOuMBbfG-rL7w-9" source="eFiqkfWfOuMBbfG-rL7w-14" target="eFiqkfWfOuMBbfG-rL7w-15">
          <mxGeometry width="50" height="50" relative="1" as="geometry">
            <mxPoint x="9.999999999999545" y="350" as="sourcePoint" />
            <mxPoint x="59.999999999999545" y="300" as="targetPoint" />
          </mxGeometry>
        </mxCell>
        <mxCell id="eFiqkfWfOuMBbfG-rL7w-20" value="" style="endArrow=classic;html=1;rounded=0;entryX=0;entryY=0.75;entryDx=0;entryDy=0;" edge="1" parent="eFiqkfWfOuMBbfG-rL7w-9" target="eFiqkfWfOuMBbfG-rL7w-22">
          <mxGeometry width="50" height="50" relative="1" as="geometry">
            <mxPoint x="109.99999999999955" y="290" as="sourcePoint" />
            <mxPoint x="276.5" y="90" as="targetPoint" />
            <Array as="points">
              <mxPoint x="149.99999999999955" y="290" />
              <mxPoint x="149.99999999999955" y="90" />
            </Array>
          </mxGeometry>
        </mxCell>
        <mxCell id="eFiqkfWfOuMBbfG-rL7w-21" value="Hospital" style="swimlane;startSize=20;html=1;" vertex="1" parent="eFiqkfWfOuMBbfG-rL7w-1">
          <mxGeometry x="364" y="20" width="129.99999999999955" height="570" as="geometry" />
        </mxCell>
        <mxCell id="eFiqkfWfOuMBbfG-rL7w-22" value="View Incoming Patient Info" style="rounded=1;whiteSpace=wrap;html=1;" vertex="1" parent="eFiqkfWfOuMBbfG-rL7w-21">
          <mxGeometry x="22.5" y="60" width="85" height="40" as="geometry" />
        </mxCell>
        <mxCell id="eFiqkfWfOuMBbfG-rL7w-23" value="" style="edgeStyle=orthogonalEdgeStyle;rounded=0;orthogonalLoop=1;jettySize=auto;html=1;" edge="1" parent="eFiqkfWfOuMBbfG-rL7w-1" source="eFiqkfWfOuMBbfG-rL7w-7" target="eFiqkfWfOuMBbfG-rL7w-11">
          <mxGeometry relative="1" as="geometry" />
        </mxCell>
        <mxCell id="eFiqkfWfOuMBbfG-rL7w-24" value="" style="endArrow=classic;html=1;rounded=0;exitX=0;exitY=0.5;exitDx=0;exitDy=0;" edge="1" parent="eFiqkfWfOuMBbfG-rL7w-1" source="eFiqkfWfOuMBbfG-rL7w-17" target="eFiqkfWfOuMBbfG-rL7w-8">
          <mxGeometry width="50" height="50" relative="1" as="geometry">
            <mxPoint x="329.99999999999955" y="510" as="sourcePoint" />
            <mxPoint x="129.99999999999955" y="548" as="targetPoint" />
          </mxGeometry>
        </mxCell>
        <mxCell id="eFiqkfWfOuMBbfG-rL7w-25" value="" style="endArrow=classic;html=1;rounded=0;entryX=1;entryY=0.5;entryDx=0;entryDy=0;" edge="1" parent="1" target="eFiqkfWfOuMBbfG-rL7w-17">
          <mxGeometry width="50" height="50" relative="1" as="geometry">
            <mxPoint x="540" y="380" as="sourcePoint" />
            <mxPoint x="420" y="410" as="targetPoint" />
            <Array as="points">
              <mxPoint x="580" y="380" />
              <mxPoint x="580" y="598" />
            </Array>
          </mxGeometry>
        </mxCell>
        <mxCell id="eFiqkfWfOuMBbfG-rL7w-26" value="" style="endArrow=none;html=1;rounded=0;" edge="1" parent="1">
          <mxGeometry width="50" height="50" relative="1" as="geometry">
            <mxPoint x="450" y="520" as="sourcePoint" />
            <mxPoint x="520" y="520" as="targetPoint" />
          </mxGeometry>
        </mxCell>
        <mxCell id="eFiqkfWfOuMBbfG-rL7w-27" value="" style="endArrow=classic;html=1;rounded=0;exitX=0.5;exitY=1;exitDx=0;exitDy=0;" edge="1" parent="1" source="eFiqkfWfOuMBbfG-rL7w-12">
          <mxGeometry width="50" height="50" relative="1" as="geometry">
            <mxPoint x="590" y="400" as="sourcePoint" />
            <mxPoint x="490" y="520" as="targetPoint" />
          </mxGeometry>
        </mxCell>
        <mxCell id="eFiqkfWfOuMBbfG-rL7w-28" value="" style="endArrow=classic;html=1;rounded=0;entryX=0.25;entryY=0;entryDx=0;entryDy=0;" edge="1" parent="1" target="eFiqkfWfOuMBbfG-rL7w-17">
          <mxGeometry width="50" height="50" relative="1" as="geometry">
            <mxPoint x="470" y="520" as="sourcePoint" />
            <mxPoint x="640" y="350" as="targetPoint" />
          </mxGeometry>
        </mxCell>
        <mxCell id="eFiqkfWfOuMBbfG-rL7w-29" value="" style="endArrow=classic;html=1;rounded=0;entryX=0.5;entryY=1;entryDx=0;entryDy=0;" edge="1" parent="1" target="eFiqkfWfOuMBbfG-rL7w-22">
          <mxGeometry width="50" height="50" relative="1" as="geometry">
            <mxPoint x="510" y="520" as="sourcePoint" />
            <mxPoint x="670" y="550" as="targetPoint" />
            <Array as="points">
              <mxPoint x="510" y="550" />
              <mxPoint x="659" y="550" />
            </Array>
          </mxGeometry>
        </mxCell>
      </root>
    </mxGraphModel>
  </diagram>
</mxfile>
